<?xml version="1.0" encoding="UTF-8" standalone="no"?>
<!-- Created with Inkscape (http://www.inkscape.org/) -->

<svg
   width="50.799999mm"
   height="128.5mm"
   viewBox="0 0 50.799999 128.5"
   version="1.1"
   id="svg5"
   inkscape:version="1.2.2 (732a01da63, 2022-12-09)"
   sodipodi:docname="dly.svg"
   xmlns:inkscape="http://www.inkscape.org/namespaces/inkscape"
   xmlns:sodipodi="http://sodipodi.sourceforge.net/DTD/sodipodi-0.dtd"
   xmlns="http://www.w3.org/2000/svg"
   xmlns:svg="http://www.w3.org/2000/svg">
  <sodipodi:namedview
     id="namedview7"
     pagecolor="#ffffff"
     bordercolor="#000000"
     borderopacity="0.25"
     inkscape:showpageshadow="2"
     inkscape:pageopacity="0.0"
     inkscape:pagecheckerboard="0"
     inkscape:deskcolor="#d1d1d1"
     inkscape:document-units="mm"
     showgrid="false"
     inkscape:zoom="0.692921"
     inkscape:cx="-36.800732"
     inkscape:cy="311.72385"
     inkscape:window-width="1920"
     inkscape:window-height="1017"
     inkscape:window-x="-8"
     inkscape:window-y="-8"
     inkscape:window-maximized="1"
     inkscape:current-layer="layer2" />
  <defs
     id="defs2" />
  <g
     inkscape:label="frame"
     inkscape:groupmode="layer"
     id="layer1">
    <rect
       style="fill:#f2f2f2;stroke-width:0.264583"
       id="rect123"
       width="50.799999"
       height="128.5"
       x="0"
       y="0" />
    <g
       aria-label="DLY"
       id="text319"
       style="font-size:11.2889px;font-family:'Segoe Print';-inkscape-font-specification:'Segoe Print';stroke-width:0.264583">
      <path
         d="m 15.503633,14.282551 q 0,-0.214974 -0.248047,-0.28112 -0.451997,-0.110243 -0.451997,-0.380339 0,-0.20395 0.176389,-0.396875 0.181901,-0.198438 0.385851,-0.198438 l 0.771702,0.02205 q 0.540192,0 1.422137,-0.07166 0.876433,-0.07166 1.311894,-0.07166 1.521356,0 2.441886,0.859897 0.926043,0.854385 0.926043,2.254473 0,1.537892 -1.322918,2.805689 -1.317406,1.262284 -3.759292,1.846573 -0.964628,0.23151 -1.306382,0.468533 -0.451997,0.308681 -0.749653,0.308681 -0.209462,0 -0.374827,-0.225999 -0.159853,-0.220486 -0.159853,-0.352778 0,-0.05512 0.110243,-0.286632 0.115756,-0.248047 0.159853,-0.501606 0.04961,-0.25356 0.08268,-0.909507 0.02756,-0.650434 0.198438,-2.100132 0.176389,-1.45521 0.286632,-2.061547 0.09922,-0.529167 0.09922,-0.727605 z m 0.997701,-0.369315 q -0.655947,3.941194 -0.655947,5.561768 0,0.35829 0.07166,0.540192 0.0441,0.03859 0.170877,0.03859 0.352778,0 1.846573,-0.463021 1.493795,-0.463022 2.42535,-1.42765 0.931554,-0.964627 0.931554,-2.193839 0,-1.019749 -0.722092,-1.626086 -0.716581,-0.61185 -1.896183,-0.61185 -0.71658,0 -1.725305,0.132292 -0.225999,0.03307 -0.446485,0.04961 z"
         id="path429" />
      <path
         d="m 23.700213,19.381298 q 0,-0.110244 0.165364,-1.344967 0.165365,-1.240236 0.314193,-2.877347 0.148829,-1.642623 0.187414,-1.835549 0.0441,-0.192925 0.176389,-0.314193 0.137804,-0.121267 0.424436,-0.121267 0.181901,0 0.325217,0.15434 0.143317,0.154341 0.143317,0.336242 0,0.237023 -0.09922,0.771702 -0.143316,0.733117 -0.418924,2.976566 -0.270096,2.243448 -0.270096,2.541105 0,0.192925 0.05512,0.264583 0.06063,0.06615 0.220486,0.06615 0.259071,0 1.223699,-0.159852 0.595313,-0.09371 2.248961,-0.181902 0.297656,-0.01102 0.733117,-0.126779 0.08268,-0.02205 0.121267,-0.02205 0.209462,0 0.33073,0.137804 0.121267,0.137804 0.121267,0.33073 0,0.314193 -0.242535,0.501606 -0.242535,0.181901 -0.540191,0.181901 -0.115756,0 -0.457509,-0.03307 -0.347266,-0.02756 -0.518143,-0.02756 -1.796964,0 -3.467148,0.56224 -0.28112,0.09371 -0.507119,0.09371 -0.248047,0 -0.385851,-0.214974 -0.132291,-0.214974 -0.132291,-0.418924 0,-0.121267 0.104731,-0.529167 0.115755,-0.479558 0.143316,-0.711068 z"
         id="path431" />
      <path
         d="m 32.883469,17.093752 q -0.440973,-0.457509 -1.201651,-1.477259 -0.534679,-0.71658 -0.755166,-0.948091 -0.220486,-0.237023 -0.606337,-0.545704 -0.512631,-0.396875 -0.633898,-0.567752 -0.115756,-0.170877 -0.115756,-0.35829 0,-0.0882 0.170877,-0.231511 0.170877,-0.148828 0.314193,-0.148828 0.336242,0 0.887458,0.507118 0.551216,0.507119 0.997701,1.069359 1.361503,1.725306 1.68672,1.929256 0.325217,-0.358291 0.683508,-0.733117 1.819012,-1.885159 2.215887,-2.447399 0.435461,-0.606337 0.865409,-0.606337 0.165365,0 0.259072,0.159852 0.09371,0.154341 0.09371,0.314193 0,0.148829 -0.418924,0.639411 -0.413412,0.490582 -2.199351,2.348179 -0.859897,0.89297 -1.008725,1.152041 -0.148828,0.259072 -0.286632,1.50482 -0.137804,1.245747 -0.192926,1.951304 -0.03307,0.429948 -0.08819,0.48507 -0.05512,0.05512 -0.231511,0.110243 -0.176389,0.06063 -0.28112,0.06063 -0.413412,0 -0.413412,-0.694532 0,-0.429949 0.176389,-1.526868 0.165365,-1.052823 0.165365,-1.411113 0,-0.314193 -0.08268,-0.534679 z"
         id="path433" />
    </g>
  </g>
  <g
     inkscape:groupmode="layer"
     id="layer2"
     inkscape:label="components"
     style="display:inline">
    <circle
       style="fill:#ff0000;stroke-width:0.106497"
       id="path66"
       cx="25.4"
       cy="47.311672"
       r="4.0210814"
       inkscape:label="delay" />
    <circle
       style="fill:#00ff00;stroke-width:0.0952715"
       id="path66-4"
       cx="10.606036"
       cy="116.28279"
       r="3.5972154"
       inkscape:label="in" />
    <circle
       style="fill:#0000ff;stroke-width:0.0952715"
       id="path66-9"
       cx="40.193962"
       cy="116.28279"
       r="3.5972154"
       inkscape:label="B" />
    <circle
       style="display:inline;fill:#0000ff;stroke-width:0.0952715"
       id="path66-9-4"
       cx="40.193962"
       cy="105.06557"
       r="3.5972154"
       inkscape:label="A" />
  </g>
</svg>
